# xmcd
#
# Track frame offsets:
#	150
#	3556
#	18473
#	40311
#	61612
#	85847
#	103943
#	108857
#	130588
#	155695
#	159443
#	177249
#	200588
#	215613
#	241126
#	260050
#	277465
#	281715
#	303180
#	315345
#
# Disc length: 4479 seconds
#
# Revision: 1
# Processed by: cddbd v1.5PL3 Copyright (c) Steve Scherf et al.
# Submitted via: EasyCDDAExtractor 6.5.2.1
#
DISCID=18117d14
DTITLE=Vasco Faé - Saudações
DYEAR=2003
DGENRE=
TTITLE0=Trinado maluco
TTITLE1=Saudações
TTITLE2=Trem das 11
TTITLE3=Take 5 (4x4)
TTITLE4=Xí, de Pirituva a Santo André
TTITLE5=I got the blues
TTITLE6=Jump harp
TTITLE7=Voando no chão
TTITLE8=Women
TTITLE9=Som de microfonia
TTITLE10=O blues brasileiro
TTITLE11=Amar alguém
TTITLE12=Desertos
TTITLE13=O caminho
TTITLE14=No céu, na terra e no horizonte
TTITLE15=Samba do Arnesto
TTITLE16=Sonzinho
TTITLE17=Easy mind worried
TTITLE18=Gaitaria
TTITLE19=Tatudoblues
EXTD=
EXTT0=
EXTT1=
EXTT2=
EXTT3=
EXTT4=
EXTT5=
EXTT6=
EXTT7=
EXTT8=
EXTT9=
EXTT10=
EXTT11=
EXTT12=
EXTT13=
EXTT14=
EXTT15=
EXTT16=
EXTT17=
EXTT18=
EXTT19=
PLAYORDER=
